<svg xmlns="http://www.w3.org/2000/svg" xmlns:xlink="http://www.w3.org/1999/xlink" width="80" zoomAndPan="magnify" viewBox="0 0 60 60" height="80" preserveAspectRatio="xMidYMid meet" version="1.0"><defs><clipPath id="13e500f928"><path d="M 0.867188 14 L 15 14 L 15 27.617188 L 0.867188 27.617188 Z M 0.867188 14 " clip-rule="nonzero"/></clipPath><clipPath id="0421fb883b"><path d="M 14 0.320312 L 28 0.320312 L 28 14 L 14 14 Z M 14 0.320312 " clip-rule="nonzero"/></clipPath><clipPath id="ea9d0f8db4"><path d="M 26 14 L 40 14 L 40 27.617188 L 26 27.617188 Z M 26 14 " clip-rule="nonzero"/></clipPath><clipPath id="32eaba1c8e"><path d="M 39 1 L 52.605469 1 L 52.605469 15 L 39 15 Z M 39 1 " clip-rule="nonzero"/></clipPath><clipPath id="e5f3bacebc"><path d="M 37.847656 0.320312 L 55 0.320312 L 55 18 L 37.847656 18 Z M 37.847656 0.320312 " clip-rule="nonzero"/></clipPath><clipPath id="b7bcc08540"><rect x="0" width="57" y="0" height="28"/></clipPath></defs><g transform="matrix(1, 0, 0, 1, 2, 16)"><g clip-path="url(#b7bcc08540)"><g clip-path="url(#13e500f928)"><path fill="#2781f6" d="M 14.011719 20.738281 C 14.011719 24.359375 11.066406 27.292969 7.4375 27.292969 C 3.808594 27.292969 0.867188 24.359375 0.867188 20.738281 C 0.867188 17.117188 3.808594 14.183594 7.4375 14.183594 C 11.066406 14.183594 14.011719 17.117188 14.011719 20.738281 Z M 14.011719 20.738281 " fill-opacity="1" fill-rule="nonzero"/></g><g clip-path="url(#0421fb883b)"><path fill="#2781f6" d="M 27.152344 6.875 C 27.152344 10.496094 24.210938 13.429688 20.582031 13.429688 C 16.953125 13.429688 14.011719 10.496094 14.011719 6.875 C 14.011719 3.253906 16.953125 0.320312 20.582031 0.320312 C 24.210938 0.320312 27.152344 3.253906 27.152344 6.875 Z M 27.152344 6.875 " fill-opacity="1" fill-rule="nonzero"/></g><g clip-path="url(#ea9d0f8db4)"><path fill="#2781f6" d="M 39.90625 21.125 C 39.90625 24.746094 36.964844 27.679688 33.335938 27.679688 C 29.707031 27.679688 26.765625 24.746094 26.765625 21.125 C 26.765625 17.503906 29.707031 14.570312 33.335938 14.570312 C 36.964844 14.570312 39.90625 17.503906 39.90625 21.125 Z M 39.90625 21.125 " fill-opacity="1" fill-rule="nonzero"/></g><g clip-path="url(#32eaba1c8e)"><path fill="#2781f6" d="M 52.660156 8.015625 C 52.660156 11.632812 49.71875 14.570312 46.089844 14.570312 C 42.460938 14.570312 39.519531 11.632812 39.519531 8.015625 C 39.519531 4.394531 42.460938 1.460938 46.089844 1.460938 C 49.71875 1.460938 52.660156 4.394531 52.660156 8.015625 Z M 52.660156 8.015625 " fill-opacity="1" fill-rule="nonzero"/></g><path fill="#2781f6" d="M 20.195312 14.570312 C 15.710938 14.570312 14.203125 19.4375 14.011719 21.300781 L 7.070312 14.375 C 8.9375 14.183594 13.855469 12.527344 14.011719 7.4375 C 24.675781 7.128906 27.214844 7.308594 27.152344 7.4375 C 26.839844 12.835938 32.289062 14.441406 34.476562 14.570312 L 26.765625 21.300781 C 26.441406 19.4375 24.675781 14.570312 20.195312 14.570312 Z M 20.195312 14.570312 " fill-opacity="1" fill-rule="nonzero"/><g clip-path="url(#e5f3bacebc)"><path fill="#2781f6" d="M 46.175781 17.121094 C 50.773438 17.121094 54.503906 13.398438 54.503906 8.804688 C 54.503906 4.210938 50.773438 0.488281 46.175781 0.488281 C 41.574219 0.488281 37.847656 4.210938 37.847656 8.804688 C 37.847656 13.398438 41.574219 17.121094 46.175781 17.121094 Z M 46.175781 17.121094 " fill-opacity="1" fill-rule="nonzero"/></g><path stroke-linecap="butt" transform="matrix(0.0325302, 0, 0, 0.0324889, 37.847689, -0.618114)" fill-opacity="1" fill="#ffffff" fill-rule="nonzero" stroke-linejoin="miter" d="M 366.965641 410.024819 L 247.965662 410.024819 C 182.401596 410.024819 128.965682 356.641136 128.965682 290.993634 C 128.965682 225.346131 182.401596 171.962448 247.965662 171.962448 C 313.649808 171.962448 366.965641 225.346131 366.965641 290.993634 Z M 366.965641 410.024819 " stroke="#ffffff" stroke-width="6" stroke-opacity="1" stroke-miterlimit="4"/></g></g></svg>