<svg xmlns="http://www.w3.org/2000/svg" xmlns:xlink="http://www.w3.org/1999/xlink" width="116" zoomAndPan="magnify" viewBox="0 0 87 30.750001" height="41" preserveAspectRatio="xMidYMid meet" version="1.0"><defs><g/><clipPath id="c31983b175"><path d="M 4.890625 15 L 10 15 L 10 19.636719 L 4.890625 19.636719 Z M 4.890625 15 " clip-rule="nonzero"/></clipPath><clipPath id="f51d814f20"><path d="M 9 10.710938 L 14 10.710938 L 14 15 L 9 15 Z M 9 10.710938 " clip-rule="nonzero"/></clipPath><clipPath id="c731ab86a5"><path d="M 13 15 L 18 15 L 18 19.636719 L 13 19.636719 Z M 13 15 " clip-rule="nonzero"/></clipPath><clipPath id="1ee892fdc1"><path d="M 17 11 L 21.257812 11 L 21.257812 16 L 17 16 Z M 17 11 " clip-rule="nonzero"/></clipPath><clipPath id="8fa20cf2bb"><path d="M 16.730469 10.710938 L 22.679688 10.710938 L 22.679688 16.363281 L 16.730469 16.363281 Z M 16.730469 10.710938 " clip-rule="nonzero"/></clipPath><clipPath id="524a29f76d"><path d="M 22 11 L 22.679688 11 L 22.679688 16 L 22 16 Z M 22 11 " clip-rule="nonzero"/></clipPath><clipPath id="3fbd5a9d04"><path d="M 0.15625 0.1875 L 22 0.1875 L 22 7 L 0.15625 7 Z M 0.15625 0.1875 " clip-rule="nonzero"/></clipPath><clipPath id="51b2c876f2"><path d="M 22 0.1875 L 55 0.1875 L 55 7 L 22 7 Z M 22 0.1875 " clip-rule="nonzero"/></clipPath><clipPath id="a35d8b9ad5"><rect x="0" width="57" y="0" height="9"/></clipPath></defs><g clip-path="url(#c31983b175)"><path fill="#2781f6" d="M 9.09375 17.242188 C 9.09375 18.402344 8.152344 19.339844 6.992188 19.339844 C 5.832031 19.339844 4.890625 18.402344 4.890625 17.242188 C 4.890625 16.085938 5.832031 15.148438 6.992188 15.148438 C 8.152344 15.148438 9.09375 16.085938 9.09375 17.242188 Z M 9.09375 17.242188 " fill-opacity="1" fill-rule="nonzero"/></g><g clip-path="url(#f51d814f20)"><path fill="#2781f6" d="M 13.300781 12.808594 C 13.300781 13.964844 12.359375 14.90625 11.199219 14.90625 C 10.035156 14.90625 9.09375 13.964844 9.09375 12.808594 C 9.09375 11.648438 10.035156 10.710938 11.199219 10.710938 C 12.359375 10.710938 13.300781 11.648438 13.300781 12.808594 Z M 13.300781 12.808594 " fill-opacity="1" fill-rule="nonzero"/></g><g clip-path="url(#c731ab86a5)"><path fill="#2781f6" d="M 17.378906 17.367188 C 17.378906 18.523438 16.4375 19.464844 15.277344 19.464844 C 14.117188 19.464844 13.175781 18.523438 13.175781 17.367188 C 13.175781 16.207031 14.117188 15.269531 15.277344 15.269531 C 16.4375 15.269531 17.378906 16.207031 17.378906 17.367188 Z M 17.378906 17.367188 " fill-opacity="1" fill-rule="nonzero"/></g><g clip-path="url(#1ee892fdc1)"><path fill="#2781f6" d="M 21.460938 13.171875 C 21.460938 14.332031 20.519531 15.269531 19.359375 15.269531 C 18.199219 15.269531 17.257812 14.332031 17.257812 13.171875 C 17.257812 12.015625 18.199219 11.074219 19.359375 11.074219 C 20.519531 11.074219 21.460938 12.015625 21.460938 13.171875 Z M 21.460938 13.171875 " fill-opacity="1" fill-rule="nonzero"/></g><path fill="#2781f6" d="M 11.074219 15.269531 C 9.640625 15.269531 9.15625 16.828125 9.09375 17.421875 L 6.875 15.207031 C 7.472656 15.148438 9.046875 14.617188 9.09375 12.988281 C 12.507812 12.890625 13.320312 12.945312 13.300781 12.988281 C 13.199219 14.714844 14.941406 15.230469 15.644531 15.269531 L 13.175781 17.421875 C 13.074219 16.828125 12.507812 15.269531 11.074219 15.269531 Z M 11.074219 15.269531 " fill-opacity="1" fill-rule="nonzero"/><g clip-path="url(#8fa20cf2bb)"><path fill="#2781f6" d="M 19.421875 16.003906 C 20.898438 16.003906 22.097656 14.832031 22.097656 13.382812 C 22.097656 11.933594 20.898438 10.757812 19.421875 10.757812 C 17.941406 10.757812 16.746094 11.933594 16.746094 13.382812 C 16.746094 14.832031 17.941406 16.003906 19.421875 16.003906 Z M 19.421875 16.003906 " fill-opacity="1" fill-rule="nonzero"/></g><path stroke-linecap="butt" transform="matrix(0.0104537, 0, 0, 0.0102437, 16.745186, 10.411155)" fill-opacity="1" fill="#ffffff" fill-rule="nonzero" stroke-linejoin="miter" d="M 367.031947 409.832718 L 247.830825 409.832718 C 182.43836 409.832718 129.003374 356.446454 129.003374 290.857616 C 129.003374 225.268777 182.43836 171.882513 247.830825 171.882513 C 313.596961 171.882513 367.031947 225.268777 367.031947 290.857616 Z M 367.031947 409.832718 " stroke="#ffffff" stroke-width="6" stroke-opacity="1" stroke-miterlimit="4"/><g clip-path="url(#524a29f76d)"><path fill="#040101" d="M 24.144531 15.230469 C 23.890625 15.230469 23.664062 15.175781 23.472656 15.0625 C 23.277344 14.953125 23.128906 14.796875 23.019531 14.597656 C 22.914062 14.398438 22.859375 14.171875 22.859375 13.910156 C 22.859375 13.648438 22.914062 13.417969 23.019531 13.21875 C 23.128906 13.019531 23.277344 12.863281 23.472656 12.75 C 23.664062 12.636719 23.890625 12.582031 24.144531 12.582031 C 24.3125 12.582031 24.464844 12.605469 24.605469 12.65625 C 24.746094 12.703125 24.871094 12.773438 24.976562 12.859375 C 25.082031 12.949219 25.167969 13.050781 25.230469 13.171875 C 25.292969 13.292969 25.332031 13.425781 25.34375 13.570312 L 24.683594 13.570312 C 24.675781 13.503906 24.65625 13.445312 24.625 13.390625 C 24.597656 13.335938 24.5625 13.289062 24.515625 13.25 C 24.472656 13.210938 24.417969 13.179688 24.359375 13.160156 C 24.300781 13.136719 24.230469 13.125 24.15625 13.125 C 24.027344 13.125 23.921875 13.160156 23.828125 13.222656 C 23.738281 13.285156 23.667969 13.378906 23.617188 13.492188 C 23.570312 13.609375 23.546875 13.75 23.546875 13.910156 C 23.546875 14.066406 23.570312 14.207031 23.617188 14.320312 C 23.667969 14.4375 23.738281 14.53125 23.828125 14.59375 C 23.917969 14.65625 24.027344 14.6875 24.15625 14.6875 C 24.230469 14.6875 24.300781 14.675781 24.359375 14.65625 C 24.417969 14.636719 24.46875 14.605469 24.511719 14.566406 C 24.554688 14.527344 24.589844 14.480469 24.617188 14.425781 C 24.644531 14.371094 24.667969 14.308594 24.679688 14.238281 L 25.34375 14.238281 C 25.335938 14.382812 25.300781 14.515625 25.234375 14.636719 C 25.171875 14.757812 25.089844 14.863281 24.984375 14.953125 C 24.875 15.039062 24.753906 15.109375 24.609375 15.15625 C 24.46875 15.207031 24.3125 15.230469 24.144531 15.230469 Z M 26.269531 13.753906 L 26.269531 15.175781 L 25.589844 15.175781 L 25.589844 11.597656 L 26.269531 11.597656 L 26.269531 13.292969 L 26.136719 13.292969 C 26.21875 13.066406 26.335938 12.894531 26.484375 12.769531 C 26.636719 12.648438 26.832031 12.585938 27.0625 12.585938 C 27.246094 12.585938 27.40625 12.625 27.539062 12.703125 C 27.675781 12.78125 27.785156 12.894531 27.859375 13.042969 C 27.9375 13.191406 27.976562 13.371094 27.976562 13.585938 L 27.976562 15.175781 L 27.292969 15.175781 L 27.292969 13.707031 C 27.292969 13.527344 27.25 13.394531 27.164062 13.300781 C 27.078125 13.210938 26.960938 13.164062 26.800781 13.164062 C 26.699219 13.164062 26.605469 13.1875 26.527344 13.226562 C 26.445312 13.269531 26.382812 13.332031 26.335938 13.417969 C 26.292969 13.507812 26.269531 13.617188 26.269531 13.753906 Z M 29.140625 15.214844 C 28.96875 15.214844 28.816406 15.1875 28.683594 15.132812 C 28.550781 15.074219 28.441406 14.992188 28.363281 14.878906 C 28.289062 14.765625 28.25 14.628906 28.25 14.460938 C 28.25 14.316406 28.277344 14.195312 28.332031 14.101562 C 28.386719 14.003906 28.460938 13.929688 28.554688 13.875 C 28.648438 13.816406 28.757812 13.773438 28.878906 13.742188 C 29 13.714844 29.128906 13.691406 29.261719 13.675781 C 29.421875 13.660156 29.546875 13.644531 29.640625 13.632812 C 29.734375 13.617188 29.800781 13.597656 29.84375 13.570312 C 29.882812 13.542969 29.902344 13.5 29.902344 13.445312 L 29.902344 13.429688 C 29.902344 13.363281 29.886719 13.304688 29.847656 13.253906 C 29.8125 13.203125 29.761719 13.164062 29.699219 13.132812 C 29.632812 13.105469 29.554688 13.089844 29.460938 13.089844 C 29.367188 13.089844 29.285156 13.105469 29.210938 13.132812 C 29.140625 13.164062 29.085938 13.203125 29.042969 13.257812 C 29.003906 13.308594 28.980469 13.367188 28.972656 13.4375 L 28.328125 13.4375 C 28.339844 13.261719 28.390625 13.113281 28.484375 12.988281 C 28.578125 12.859375 28.710938 12.761719 28.875 12.691406 C 29.042969 12.621094 29.246094 12.585938 29.476562 12.585938 C 29.648438 12.585938 29.804688 12.605469 29.941406 12.644531 C 30.078125 12.6875 30.191406 12.742188 30.285156 12.820312 C 30.378906 12.894531 30.453125 12.984375 30.5 13.09375 C 30.550781 13.199219 30.574219 13.316406 30.574219 13.449219 L 30.574219 15.175781 L 29.910156 15.175781 L 29.910156 14.816406 L 29.902344 14.816406 C 29.855469 14.898438 29.800781 14.96875 29.734375 15.027344 C 29.667969 15.085938 29.585938 15.132812 29.488281 15.167969 C 29.394531 15.199219 29.277344 15.214844 29.140625 15.214844 Z M 29.324219 14.742188 C 29.445312 14.742188 29.550781 14.722656 29.636719 14.675781 C 29.722656 14.632812 29.792969 14.574219 29.835938 14.496094 C 29.882812 14.421875 29.90625 14.335938 29.90625 14.242188 L 29.90625 13.980469 C 29.886719 13.992188 29.859375 14.003906 29.820312 14.015625 C 29.789062 14.023438 29.746094 14.035156 29.699219 14.042969 C 29.648438 14.054688 29.597656 14.0625 29.539062 14.074219 C 29.484375 14.082031 29.425781 14.089844 29.367188 14.097656 C 29.28125 14.113281 29.203125 14.132812 29.132812 14.160156 C 29.0625 14.1875 29.007812 14.222656 28.964844 14.269531 C 28.925781 14.3125 28.902344 14.371094 28.902344 14.445312 C 28.902344 14.503906 28.921875 14.558594 28.953125 14.605469 C 28.992188 14.648438 29.039062 14.683594 29.101562 14.707031 C 29.164062 14.730469 29.238281 14.742188 29.324219 14.742188 Z M 32.386719 12.640625 L 32.386719 13.167969 L 30.726562 13.167969 L 30.726562 12.640625 Z M 31.179688 11.949219 L 31.855469 11.949219 L 31.855469 14.414062 C 31.855469 14.5 31.875 14.5625 31.910156 14.597656 C 31.945312 14.628906 32.015625 14.644531 32.113281 14.644531 C 32.15625 14.644531 32.203125 14.644531 32.257812 14.644531 C 32.3125 14.644531 32.355469 14.644531 32.386719 14.644531 L 32.386719 15.175781 C 32.34375 15.175781 32.28125 15.175781 32.207031 15.175781 C 32.132812 15.175781 32.058594 15.175781 31.984375 15.175781 C 31.707031 15.175781 31.503906 15.121094 31.375 15.011719 C 31.242188 14.90625 31.179688 14.742188 31.179688 14.515625 Z M 33.304688 15.175781 L 32.503906 12.640625 L 33.21875 12.640625 L 33.46875 13.554688 C 33.515625 13.738281 33.5625 13.921875 33.605469 14.117188 C 33.648438 14.308594 33.695312 14.496094 33.738281 14.683594 L 33.644531 14.683594 C 33.691406 14.496094 33.738281 14.308594 33.785156 14.117188 C 33.835938 13.921875 33.886719 13.738281 33.933594 13.554688 L 34.195312 12.640625 L 34.8125 12.640625 L 35.066406 13.554688 C 35.117188 13.738281 35.164062 13.921875 35.210938 14.117188 C 35.261719 14.308594 35.308594 14.496094 35.355469 14.683594 L 35.257812 14.683594 C 35.304688 14.496094 35.347656 14.308594 35.390625 14.117188 C 35.4375 13.921875 35.480469 13.738281 35.527344 13.554688 L 35.777344 12.640625 L 36.496094 12.640625 L 35.699219 15.175781 L 34.996094 15.175781 L 34.6875 14.148438 C 34.660156 14.046875 34.628906 13.945312 34.601562 13.839844 C 34.574219 13.734375 34.546875 13.628906 34.519531 13.523438 C 34.492188 13.414062 34.464844 13.308594 34.4375 13.207031 L 34.566406 13.207031 C 34.539062 13.308594 34.511719 13.414062 34.484375 13.523438 C 34.453125 13.628906 34.425781 13.734375 34.398438 13.839844 C 34.375 13.945312 34.34375 14.046875 34.3125 14.148438 L 34.003906 15.175781 Z M 37.753906 15.230469 C 37.496094 15.230469 37.269531 15.175781 37.074219 15.066406 C 36.878906 14.957031 36.726562 14.800781 36.617188 14.601562 C 36.511719 14.40625 36.457031 14.171875 36.457031 13.910156 C 36.457031 13.644531 36.511719 13.414062 36.617188 13.214844 C 36.726562 13.015625 36.878906 12.859375 37.074219 12.75 C 37.269531 12.636719 37.496094 12.582031 37.753906 12.582031 C 38.015625 12.582031 38.242188 12.636719 38.4375 12.75 C 38.628906 12.859375 38.78125 13.015625 38.890625 13.214844 C 39 13.414062 39.054688 13.644531 39.054688 13.910156 C 39.054688 14.171875 39 14.40625 38.890625 14.601562 C 38.78125 14.800781 38.628906 14.957031 38.4375 15.066406 C 38.242188 15.175781 38.015625 15.230469 37.753906 15.230469 Z M 37.753906 14.683594 C 37.878906 14.683594 37.988281 14.65625 38.078125 14.59375 C 38.167969 14.53125 38.242188 14.441406 38.292969 14.324219 C 38.34375 14.207031 38.367188 14.070312 38.367188 13.910156 C 38.367188 13.746094 38.34375 13.605469 38.292969 13.492188 C 38.242188 13.375 38.167969 13.285156 38.078125 13.222656 C 37.988281 13.160156 37.878906 13.128906 37.753906 13.128906 C 37.632812 13.128906 37.523438 13.160156 37.429688 13.222656 C 37.339844 13.285156 37.269531 13.375 37.21875 13.492188 C 37.167969 13.605469 37.140625 13.746094 37.140625 13.910156 C 37.140625 14.070312 37.167969 14.210938 37.21875 14.328125 C 37.269531 14.441406 37.339844 14.53125 37.429688 14.59375 C 37.523438 14.65625 37.632812 14.683594 37.753906 14.683594 Z M 40.496094 15.230469 C 40.238281 15.230469 40.011719 15.175781 39.8125 15.066406 C 39.621094 14.957031 39.46875 14.800781 39.359375 14.601562 C 39.25 14.40625 39.195312 14.171875 39.195312 13.910156 C 39.195312 13.644531 39.25 13.414062 39.359375 13.214844 C 39.46875 13.015625 39.621094 12.859375 39.8125 12.75 C 40.011719 12.636719 40.238281 12.582031 40.496094 12.582031 C 40.753906 12.582031 40.980469 12.636719 41.175781 12.75 C 41.371094 12.859375 41.523438 13.015625 41.628906 13.214844 C 41.738281 13.414062 41.792969 13.644531 41.792969 13.910156 C 41.792969 14.171875 41.738281 14.40625 41.628906 14.601562 C 41.523438 14.800781 41.371094 14.957031 41.175781 15.066406 C 40.980469 15.175781 40.753906 15.230469 40.496094 15.230469 Z M 40.496094 14.683594 C 40.621094 14.683594 40.726562 14.65625 40.820312 14.59375 C 40.910156 14.53125 40.980469 14.441406 41.03125 14.324219 C 41.082031 14.207031 41.109375 14.070312 41.109375 13.910156 C 41.109375 13.746094 41.082031 13.605469 41.03125 13.492188 C 40.980469 13.375 40.910156 13.285156 40.820312 13.222656 C 40.726562 13.160156 40.621094 13.128906 40.496094 13.128906 C 40.371094 13.128906 40.265625 13.160156 40.171875 13.222656 C 40.082031 13.285156 40.007812 13.375 39.957031 13.492188 C 39.90625 13.605469 39.882812 13.746094 39.882812 13.910156 C 39.882812 14.070312 39.90625 14.210938 39.957031 14.328125 C 40.007812 14.441406 40.082031 14.53125 40.171875 14.59375 C 40.265625 14.65625 40.371094 14.683594 40.496094 14.683594 Z M 43.492188 12.640625 L 43.492188 13.167969 L 41.832031 13.167969 L 41.832031 12.640625 Z M 42.28125 11.949219 L 42.960938 11.949219 L 42.960938 14.414062 C 42.960938 14.5 42.980469 14.5625 43.015625 14.597656 C 43.050781 14.628906 43.121094 14.644531 43.21875 14.644531 C 43.257812 14.644531 43.308594 14.644531 43.359375 14.644531 C 43.417969 14.644531 43.460938 14.644531 43.492188 14.644531 L 43.492188 15.175781 C 43.445312 15.175781 43.386719 15.175781 43.3125 15.175781 C 43.238281 15.175781 43.164062 15.175781 43.089844 15.175781 C 42.8125 15.175781 42.609375 15.121094 42.480469 15.011719 C 42.347656 14.90625 42.28125 14.742188 42.28125 14.515625 Z M 42.28125 11.949219 " fill-opacity="1" fill-rule="nonzero"/></g><g transform="matrix(1, 0, 0, 1, 24, 11)"><g clip-path="url(#a35d8b9ad5)"><g clip-path="url(#3fbd5a9d04)"><g fill="#000000" fill-opacity="1"><g transform="translate(0.445746, 6.656051)"><g><path d="M 3.296875 0.125 C 2.960938 0.125 2.644531 0.078125 2.34375 -0.015625 C 2.039062 -0.117188 1.765625 -0.257812 1.515625 -0.4375 C 1.265625 -0.613281 1.046875 -0.820312 0.859375 -1.0625 C 0.671875 -1.3125 0.523438 -1.582031 0.421875 -1.875 C 0.316406 -2.175781 0.265625 -2.488281 0.265625 -2.8125 C 0.265625 -3.144531 0.316406 -3.457031 0.421875 -3.75 C 0.523438 -4.039062 0.671875 -4.304688 0.859375 -4.546875 C 1.046875 -4.796875 1.265625 -5.007812 1.515625 -5.1875 C 1.765625 -5.363281 2.039062 -5.5 2.34375 -5.59375 C 2.644531 -5.695312 2.960938 -5.75 3.296875 -5.75 C 3.628906 -5.75 3.945312 -5.695312 4.25 -5.59375 C 4.550781 -5.5 4.828125 -5.363281 5.078125 -5.1875 C 5.335938 -5.007812 5.554688 -4.796875 5.734375 -4.546875 C 5.921875 -4.304688 6.066406 -4.039062 6.171875 -3.75 C 6.273438 -3.457031 6.328125 -3.144531 6.328125 -2.8125 C 6.328125 -2.488281 6.273438 -2.175781 6.171875 -1.875 C 6.066406 -1.582031 5.921875 -1.3125 5.734375 -1.0625 C 5.554688 -0.820312 5.335938 -0.613281 5.078125 -0.4375 C 4.828125 -0.257812 4.550781 -0.117188 4.25 -0.015625 C 3.945312 0.078125 3.628906 0.125 3.296875 0.125 Z M 3.296875 -0.828125 C 3.578125 -0.828125 3.835938 -0.875 4.078125 -0.96875 C 4.316406 -1.070312 4.53125 -1.210938 4.71875 -1.390625 C 4.90625 -1.566406 5.046875 -1.773438 5.140625 -2.015625 C 5.242188 -2.265625 5.296875 -2.53125 5.296875 -2.8125 C 5.296875 -3.09375 5.242188 -3.351562 5.140625 -3.59375 C 5.046875 -3.84375 4.90625 -4.054688 4.71875 -4.234375 C 4.53125 -4.410156 4.316406 -4.546875 4.078125 -4.640625 C 3.835938 -4.742188 3.578125 -4.796875 3.296875 -4.796875 C 3.023438 -4.796875 2.765625 -4.742188 2.515625 -4.640625 C 2.273438 -4.546875 2.0625 -4.410156 1.875 -4.234375 C 1.695312 -4.054688 1.554688 -3.84375 1.453125 -3.59375 C 1.347656 -3.351562 1.296875 -3.09375 1.296875 -2.8125 C 1.296875 -2.53125 1.347656 -2.265625 1.453125 -2.015625 C 1.554688 -1.773438 1.695312 -1.566406 1.875 -1.390625 C 2.0625 -1.210938 2.273438 -1.070312 2.515625 -0.96875 C 2.765625 -0.875 3.023438 -0.828125 3.296875 -0.828125 Z M 3.296875 -0.828125 "/></g></g><g transform="translate(7.040428, 6.656051)"><g><path d="M 5.78125 -4.375 C 6.320312 -4.375 6.722656 -4.191406 6.984375 -3.828125 C 7.242188 -3.460938 7.375 -2.945312 7.375 -2.28125 L 7.375 0 L 6.390625 0 L 6.390625 -2.265625 C 6.390625 -2.679688 6.304688 -2.984375 6.140625 -3.171875 C 5.984375 -3.359375 5.769531 -3.453125 5.5 -3.453125 C 5.320312 -3.453125 5.15625 -3.394531 5 -3.28125 C 4.84375 -3.175781 4.710938 -3.023438 4.609375 -2.828125 C 4.515625 -2.640625 4.46875 -2.421875 4.46875 -2.171875 L 4.46875 0 L 3.484375 0 L 3.484375 -2.265625 C 3.484375 -2.679688 3.398438 -2.984375 3.234375 -3.171875 C 3.078125 -3.359375 2.863281 -3.453125 2.59375 -3.453125 C 2.414062 -3.453125 2.25 -3.394531 2.09375 -3.28125 C 1.9375 -3.175781 1.8125 -3.023438 1.71875 -2.828125 C 1.625 -2.640625 1.578125 -2.421875 1.578125 -2.171875 L 1.578125 0 L 0.59375 0 L 0.59375 -4.25 L 1.515625 -4.25 L 1.53125 -3.578125 C 1.601562 -3.734375 1.703125 -3.867188 1.828125 -3.984375 C 1.960938 -4.109375 2.117188 -4.203125 2.296875 -4.265625 C 2.484375 -4.335938 2.679688 -4.375 2.890625 -4.375 C 3.242188 -4.375 3.535156 -4.289062 3.765625 -4.125 C 4.003906 -3.957031 4.179688 -3.71875 4.296875 -3.40625 C 4.484375 -3.738281 4.703125 -3.984375 4.953125 -4.140625 C 5.203125 -4.296875 5.476562 -4.375 5.78125 -4.375 Z M 5.78125 -4.375 "/></g></g><g transform="translate(14.967244, 6.656051)"><g><path d="M 1.578125 0 L 0.59375 0 L 0.59375 -4.25 L 1.53125 -4.25 L 1.53125 -3.578125 C 1.613281 -3.734375 1.726562 -3.867188 1.875 -3.984375 C 2.019531 -4.109375 2.1875 -4.203125 2.375 -4.265625 C 2.5625 -4.335938 2.765625 -4.375 2.984375 -4.375 C 3.554688 -4.375 3.984375 -4.191406 4.265625 -3.828125 C 4.546875 -3.460938 4.6875 -2.945312 4.6875 -2.28125 L 4.6875 0 L 3.6875 0 L 3.6875 -2.265625 C 3.6875 -2.679688 3.597656 -2.984375 3.421875 -3.171875 C 3.242188 -3.359375 3.003906 -3.453125 2.703125 -3.453125 C 2.515625 -3.453125 2.332031 -3.398438 2.15625 -3.296875 C 1.988281 -3.203125 1.847656 -3.054688 1.734375 -2.859375 C 1.628906 -2.671875 1.578125 -2.441406 1.578125 -2.171875 Z M 1.578125 0 "/></g></g><g transform="translate(20.205047, 6.656051)"><g><path d="M 1.078125 -4.90625 C 0.878906 -4.90625 0.726562 -4.957031 0.625 -5.0625 C 0.519531 -5.175781 0.46875 -5.316406 0.46875 -5.484375 C 0.46875 -5.628906 0.519531 -5.757812 0.625 -5.875 C 0.726562 -5.988281 0.878906 -6.046875 1.078125 -6.046875 C 1.273438 -6.046875 1.425781 -5.988281 1.53125 -5.875 C 1.644531 -5.757812 1.703125 -5.628906 1.703125 -5.484375 C 1.703125 -5.316406 1.644531 -5.175781 1.53125 -5.0625 C 1.425781 -4.957031 1.273438 -4.90625 1.078125 -4.90625 Z M 1.578125 0 L 0.59375 0 L 0.59375 -4.25 L 1.578125 -4.25 Z M 1.578125 0 "/></g></g></g></g><g clip-path="url(#51b2c876f2)"><g fill="#000000" fill-opacity="1"><g transform="translate(22.37578, 6.656051)"><g><path d="M 2.46875 0.125 C 2.164062 0.125 1.882812 0.0664062 1.625 -0.046875 C 1.363281 -0.171875 1.132812 -0.332031 0.9375 -0.53125 C 0.75 -0.738281 0.597656 -0.972656 0.484375 -1.234375 C 0.378906 -1.503906 0.328125 -1.796875 0.328125 -2.109375 C 0.328125 -2.410156 0.378906 -2.695312 0.484375 -2.96875 C 0.597656 -3.238281 0.75 -3.472656 0.9375 -3.671875 C 1.132812 -3.878906 1.363281 -4.039062 1.625 -4.15625 C 1.882812 -4.269531 2.164062 -4.328125 2.46875 -4.328125 C 2.8125 -4.328125 3.117188 -4.257812 3.390625 -4.125 C 3.660156 -4 3.890625 -3.820312 4.078125 -3.59375 C 4.273438 -3.375 4.414062 -3.117188 4.5 -2.828125 L 3.765625 -2.828125 C 3.648438 -3.097656 3.476562 -3.300781 3.25 -3.4375 C 3.019531 -3.582031 2.765625 -3.65625 2.484375 -3.65625 C 2.296875 -3.65625 2.113281 -3.617188 1.9375 -3.546875 C 1.769531 -3.484375 1.617188 -3.382812 1.484375 -3.25 C 1.347656 -3.113281 1.238281 -2.945312 1.15625 -2.75 C 1.070312 -2.5625 1.03125 -2.347656 1.03125 -2.109375 C 1.03125 -1.859375 1.070312 -1.632812 1.15625 -1.4375 C 1.238281 -1.25 1.347656 -1.085938 1.484375 -0.953125 C 1.617188 -0.828125 1.769531 -0.726562 1.9375 -0.65625 C 2.113281 -0.582031 2.296875 -0.546875 2.484375 -0.546875 C 2.765625 -0.546875 3.019531 -0.617188 3.25 -0.765625 C 3.476562 -0.910156 3.648438 -1.125 3.765625 -1.40625 L 4.484375 -1.40625 C 4.410156 -1.101562 4.273438 -0.835938 4.078125 -0.609375 C 3.890625 -0.378906 3.65625 -0.195312 3.375 -0.0625 C 3.101562 0.0625 2.800781 0.125 2.46875 0.125 Z M 2.46875 0.125 "/></g></g><g transform="translate(27.131045, 6.656051)"><g><path d="M 1.390625 0 L 0.6875 0 L 0.6875 -5.8125 L 1.390625 -5.8125 L 1.390625 -3.859375 L 1.375 -3.40625 C 1.457031 -3.59375 1.570312 -3.753906 1.71875 -3.890625 C 1.875 -4.023438 2.050781 -4.128906 2.25 -4.203125 C 2.457031 -4.285156 2.675781 -4.328125 2.90625 -4.328125 C 3.46875 -4.328125 3.894531 -4.15625 4.1875 -3.8125 C 4.476562 -3.46875 4.625 -2.957031 4.625 -2.28125 L 4.625 0 L 3.90625 0 L 3.90625 -2.265625 C 3.90625 -2.753906 3.800781 -3.109375 3.59375 -3.328125 C 3.382812 -3.554688 3.097656 -3.671875 2.734375 -3.671875 C 2.554688 -3.671875 2.382812 -3.632812 2.21875 -3.5625 C 2.0625 -3.488281 1.921875 -3.382812 1.796875 -3.25 C 1.671875 -3.125 1.570312 -2.972656 1.5 -2.796875 C 1.425781 -2.617188 1.390625 -2.425781 1.390625 -2.21875 Z M 1.390625 0 "/></g></g><g transform="translate(32.377096, 6.656051)"><g><path d="M 2.359375 0.125 C 2.066406 0.125 1.796875 0.0664062 1.546875 -0.046875 C 1.304688 -0.160156 1.09375 -0.316406 0.90625 -0.515625 C 0.726562 -0.722656 0.585938 -0.960938 0.484375 -1.234375 C 0.378906 -1.503906 0.328125 -1.796875 0.328125 -2.109375 C 0.328125 -2.410156 0.378906 -2.695312 0.484375 -2.96875 C 0.585938 -3.238281 0.726562 -3.472656 0.90625 -3.671875 C 1.09375 -3.878906 1.304688 -4.039062 1.546875 -4.15625 C 1.796875 -4.269531 2.066406 -4.328125 2.359375 -4.328125 C 2.609375 -4.328125 2.84375 -4.285156 3.0625 -4.203125 C 3.28125 -4.117188 3.472656 -4 3.640625 -3.84375 C 3.804688 -3.695312 3.9375 -3.519531 4.03125 -3.3125 L 4.03125 -4.203125 L 4.703125 -4.203125 L 4.703125 0 L 4.03125 0 L 4.03125 -0.890625 C 3.9375 -0.691406 3.804688 -0.515625 3.640625 -0.359375 C 3.472656 -0.203125 3.28125 -0.0820312 3.0625 0 C 2.84375 0.0820312 2.609375 0.125 2.359375 0.125 Z M 2.515625 -0.546875 C 2.722656 -0.546875 2.914062 -0.582031 3.09375 -0.65625 C 3.28125 -0.738281 3.4375 -0.847656 3.5625 -0.984375 C 3.695312 -1.128906 3.800781 -1.296875 3.875 -1.484375 C 3.957031 -1.679688 4 -1.890625 4 -2.109375 C 4 -2.328125 3.957031 -2.53125 3.875 -2.71875 C 3.800781 -2.90625 3.695312 -3.066406 3.5625 -3.203125 C 3.425781 -3.347656 3.269531 -3.457031 3.09375 -3.53125 C 2.914062 -3.613281 2.722656 -3.65625 2.515625 -3.65625 C 2.316406 -3.65625 2.125 -3.617188 1.9375 -3.546875 C 1.757812 -3.472656 1.601562 -3.363281 1.46875 -3.21875 C 1.332031 -3.082031 1.222656 -2.921875 1.140625 -2.734375 C 1.066406 -2.546875 1.03125 -2.335938 1.03125 -2.109375 C 1.03125 -1.867188 1.066406 -1.65625 1.140625 -1.46875 C 1.222656 -1.28125 1.332031 -1.113281 1.46875 -0.96875 C 1.601562 -0.832031 1.757812 -0.726562 1.9375 -0.65625 C 2.125 -0.582031 2.316406 -0.546875 2.515625 -0.546875 Z M 2.515625 -0.546875 "/></g></g><g transform="translate(37.763372, 6.656051)"><g><path d="M 1.390625 0 L 0.6875 0 L 0.6875 -4.203125 L 1.359375 -4.203125 L 1.359375 -3.390625 C 1.441406 -3.578125 1.554688 -3.738281 1.703125 -3.875 C 1.859375 -4.019531 2.039062 -4.128906 2.25 -4.203125 C 2.457031 -4.285156 2.675781 -4.328125 2.90625 -4.328125 C 3.46875 -4.328125 3.894531 -4.15625 4.1875 -3.8125 C 4.476562 -3.46875 4.625 -2.957031 4.625 -2.28125 L 4.625 0 L 3.90625 0 L 3.90625 -2.265625 C 3.90625 -2.753906 3.800781 -3.109375 3.59375 -3.328125 C 3.382812 -3.554688 3.097656 -3.671875 2.734375 -3.671875 C 2.554688 -3.671875 2.382812 -3.632812 2.21875 -3.5625 C 2.0625 -3.5 1.921875 -3.40625 1.796875 -3.28125 C 1.671875 -3.15625 1.570312 -3 1.5 -2.8125 C 1.425781 -2.632812 1.390625 -2.4375 1.390625 -2.21875 Z M 1.390625 0 "/></g></g><g transform="translate(43.009423, 6.656051)"><g><path d="M 1.390625 0 L 0.6875 0 L 0.6875 -4.203125 L 1.359375 -4.203125 L 1.359375 -3.390625 C 1.441406 -3.578125 1.554688 -3.738281 1.703125 -3.875 C 1.859375 -4.019531 2.039062 -4.128906 2.25 -4.203125 C 2.457031 -4.285156 2.675781 -4.328125 2.90625 -4.328125 C 3.46875 -4.328125 3.894531 -4.15625 4.1875 -3.8125 C 4.476562 -3.46875 4.625 -2.957031 4.625 -2.28125 L 4.625 0 L 3.90625 0 L 3.90625 -2.265625 C 3.90625 -2.753906 3.800781 -3.109375 3.59375 -3.328125 C 3.382812 -3.554688 3.097656 -3.671875 2.734375 -3.671875 C 2.554688 -3.671875 2.382812 -3.632812 2.21875 -3.5625 C 2.0625 -3.5 1.921875 -3.40625 1.796875 -3.28125 C 1.671875 -3.15625 1.570312 -3 1.5 -2.8125 C 1.425781 -2.632812 1.390625 -2.4375 1.390625 -2.21875 Z M 1.390625 0 "/></g></g><g transform="translate(48.255474, 6.656051)"><g><path d="M 4.546875 -2.203125 C 4.546875 -2.171875 4.546875 -2.132812 4.546875 -2.09375 C 4.546875 -2.050781 4.539062 -1.992188 4.53125 -1.921875 L 1.046875 -1.921875 C 1.078125 -1.640625 1.160156 -1.394531 1.296875 -1.1875 C 1.429688 -0.976562 1.597656 -0.816406 1.796875 -0.703125 C 2.003906 -0.597656 2.222656 -0.546875 2.453125 -0.546875 C 2.734375 -0.546875 2.972656 -0.601562 3.171875 -0.71875 C 3.378906 -0.84375 3.53125 -1.023438 3.625 -1.265625 L 4.421875 -1.265625 C 4.359375 -1.078125 4.265625 -0.894531 4.140625 -0.71875 C 4.023438 -0.550781 3.878906 -0.40625 3.703125 -0.28125 C 3.535156 -0.15625 3.347656 -0.0625 3.140625 0 C 2.929688 0.0703125 2.707031 0.109375 2.46875 0.109375 C 2.164062 0.109375 1.882812 0.0507812 1.625 -0.0625 C 1.363281 -0.175781 1.132812 -0.332031 0.9375 -0.53125 C 0.738281 -0.738281 0.585938 -0.972656 0.484375 -1.234375 C 0.378906 -1.503906 0.328125 -1.796875 0.328125 -2.109375 C 0.328125 -2.410156 0.378906 -2.695312 0.484375 -2.96875 C 0.585938 -3.238281 0.738281 -3.472656 0.9375 -3.671875 C 1.132812 -3.878906 1.363281 -4.039062 1.625 -4.15625 C 1.882812 -4.269531 2.164062 -4.328125 2.46875 -4.328125 C 2.769531 -4.328125 3.046875 -4.269531 3.296875 -4.15625 C 3.554688 -4.039062 3.78125 -3.882812 3.96875 -3.6875 C 4.15625 -3.488281 4.296875 -3.265625 4.390625 -3.015625 C 4.492188 -2.765625 4.546875 -2.492188 4.546875 -2.203125 Z M 1.078125 -2.546875 L 3.828125 -2.546875 C 3.816406 -2.691406 3.769531 -2.832031 3.6875 -2.96875 C 3.613281 -3.101562 3.515625 -3.222656 3.390625 -3.328125 C 3.265625 -3.429688 3.117188 -3.507812 2.953125 -3.5625 C 2.796875 -3.625 2.628906 -3.65625 2.453125 -3.65625 C 2.242188 -3.65625 2.046875 -3.613281 1.859375 -3.53125 C 1.671875 -3.445312 1.503906 -3.320312 1.359375 -3.15625 C 1.222656 -2.988281 1.128906 -2.785156 1.078125 -2.546875 Z M 1.078125 -2.546875 "/></g></g><g transform="translate(53.06023, 6.656051)"><g><path d="M 1.390625 0 L 0.6875 0 L 0.6875 -5.8125 L 1.390625 -5.8125 Z M 1.390625 0 "/></g></g></g></g></g></g></svg>