<svg xmlns="http://www.w3.org/2000/svg" xmlns:xlink="http://www.w3.org/1999/xlink" width="2559" zoomAndPan="magnify" viewBox="0 0 1919.25 435.749989" height="581" preserveAspectRatio="xMidYMid meet" version="1.0"><defs><g/><clipPath id="b2522b4847"><path d="M 0.726562 117 L 105 117 L 105 222 L 0.726562 222 Z M 0.726562 117 " clip-rule="nonzero"/></clipPath><clipPath id="59fd084660"><path d="M 104 7.859375 L 210 7.859375 L 210 112 L 104 112 Z M 104 7.859375 " clip-rule="nonzero"/></clipPath><clipPath id="b3ee615fb0"><path d="M 206 120 L 311 120 L 311 224.554688 L 206 224.554688 Z M 206 120 " clip-rule="nonzero"/></clipPath><clipPath id="c136921af8"><path d="M 294.074219 9 L 427 9 L 427 142 L 294.074219 142 Z M 294.074219 9 " clip-rule="nonzero"/></clipPath><clipPath id="0df8e16a33"><path d="M 481 22 L 1859.285156 22 L 1859.285156 232.460938 L 481 232.460938 Z M 481 22 " clip-rule="nonzero"/></clipPath><clipPath id="71a3678b51"><rect x="0" width="1379" y="0" height="211"/></clipPath><clipPath id="cddd582d6b"><rect x="0" width="1860" y="0" height="233"/></clipPath></defs><g transform="matrix(1, 0, 0, 1, 43, 82)"><g clip-path="url(#cddd582d6b)"><g clip-path="url(#b2522b4847)"><path fill="#2781f6" d="M 104.96875 169.839844 C 104.96875 198.558594 81.632812 221.835938 52.847656 221.835938 C 24.0625 221.835938 0.726562 198.558594 0.726562 169.839844 C 0.726562 141.121094 24.0625 117.839844 52.847656 117.839844 C 81.632812 117.839844 104.96875 141.121094 104.96875 169.839844 Z M 104.96875 169.839844 " fill-opacity="1" fill-rule="nonzero"/></g><g clip-path="url(#59fd084660)"><path fill="#2781f6" d="M 209.214844 59.859375 C 209.214844 88.578125 185.878906 111.855469 157.09375 111.855469 C 128.304688 111.855469 104.96875 88.578125 104.96875 59.859375 C 104.96875 31.140625 128.304688 7.859375 157.09375 7.859375 C 185.878906 7.859375 209.214844 31.140625 209.214844 59.859375 Z M 209.214844 59.859375 " fill-opacity="1" fill-rule="nonzero"/></g><g clip-path="url(#b3ee615fb0)"><path fill="#2781f6" d="M 310.390625 172.898438 C 310.390625 201.617188 287.054688 224.894531 258.269531 224.894531 C 229.484375 224.894531 206.148438 201.617188 206.148438 172.898438 C 206.148438 144.179688 229.484375 120.898438 258.269531 120.898438 C 287.054688 120.898438 310.390625 144.179688 310.390625 172.898438 Z M 310.390625 172.898438 " fill-opacity="1" fill-rule="nonzero"/></g><path fill="#2781f6" d="M 411.570312 68.902344 C 411.570312 97.621094 388.234375 120.898438 359.449219 120.898438 C 330.660156 120.898438 307.324219 97.621094 307.324219 68.902344 C 307.324219 40.183594 330.660156 16.902344 359.449219 16.902344 C 388.234375 16.902344 411.570312 40.183594 411.570312 68.902344 Z M 411.570312 68.902344 " fill-opacity="1" fill-rule="nonzero"/><path fill="#2781f6" d="M 154.027344 120.898438 C 118.460938 120.898438 106.503906 159.511719 104.96875 174.292969 L 49.914062 119.371094 C 64.734375 117.839844 103.742188 104.6875 104.96875 64.3125 C 189.589844 61.867188 209.722656 63.292969 209.214844 64.3125 C 206.761719 107.136719 249.960938 119.878906 267.335938 120.898438 L 206.148438 174.292969 C 203.59375 159.511719 189.589844 120.898438 154.027344 120.898438 Z M 154.027344 120.898438 " fill-opacity="1" fill-rule="nonzero"/><g clip-path="url(#c136921af8)"><path fill="#2781f6" d="M 360.144531 141.84375 C 396.613281 141.84375 426.175781 112.160156 426.175781 75.539062 C 426.175781 38.917969 396.613281 9.234375 360.144531 9.234375 C 323.679688 9.234375 294.117188 38.917969 294.117188 75.539062 C 294.117188 112.160156 323.679688 141.84375 360.144531 141.84375 Z M 360.144531 141.84375 " fill-opacity="1" fill-rule="nonzero"/></g><path stroke-linecap="butt" transform="matrix(0.257925, 0, 0, 0.259006, 294.117548, 0.427655)" fill-opacity="1" fill="#ffffff" fill-rule="nonzero" stroke-linejoin="miter" d="M 367.00573 410.003614 L 247.996857 410.003614 C 182.389014 410.003614 129.00313 356.614429 129.00313 290.993992 C 129.00313 225.388636 182.389014 171.99945 247.996857 171.99945 C 313.604701 171.99945 367.00573 225.388636 367.00573 290.993992 Z M 367.00573 410.003614 " stroke="#ffffff" stroke-width="6" stroke-opacity="1" stroke-miterlimit="4"/><g clip-path="url(#0df8e16a33)"><g transform="matrix(1, 0, 0, 1, 481, 22)"><g clip-path="url(#71a3678b51)"><g fill="#000000" fill-opacity="1"><g transform="translate(4.254139, 157.931548)"><g><path d="M 81.640625 2.96875 C 73.398438 2.96875 65.53125 1.757812 58.03125 -0.65625 C 50.539062 -3.082031 43.679688 -6.507812 37.453125 -10.9375 C 31.222656 -15.363281 25.804688 -20.609375 21.203125 -26.671875 C 16.609375 -32.734375 13.050781 -39.410156 10.53125 -46.703125 C 8.007812 -53.992188 6.75 -61.65625 6.75 -69.6875 C 6.75 -77.800781 8.007812 -85.484375 10.53125 -92.734375 C 13.050781 -99.992188 16.609375 -106.632812 21.203125 -112.65625 C 25.804688 -118.6875 31.222656 -123.914062 37.453125 -128.34375 C 43.679688 -132.769531 50.539062 -136.191406 58.03125 -138.609375 C 65.53125 -141.035156 73.398438 -142.25 81.640625 -142.25 C 89.890625 -142.25 97.757812 -141.035156 105.25 -138.609375 C 112.75 -136.191406 119.628906 -132.769531 125.890625 -128.34375 C 132.160156 -123.914062 137.59375 -118.6875 142.1875 -112.65625 C 146.789062 -106.632812 150.351562 -99.992188 152.875 -92.734375 C 155.394531 -85.484375 156.65625 -77.800781 156.65625 -69.6875 C 156.65625 -61.65625 155.394531 -53.992188 152.875 -46.703125 C 150.351562 -39.410156 146.789062 -32.734375 142.1875 -26.671875 C 137.59375 -20.609375 132.160156 -15.363281 125.890625 -10.9375 C 119.628906 -6.507812 112.765625 -3.082031 105.296875 -0.65625 C 97.835938 1.757812 89.953125 2.96875 81.640625 2.96875 Z M 81.640625 -20.4375 C 88.523438 -20.4375 94.960938 -21.660156 100.953125 -24.109375 C 106.953125 -26.566406 112.234375 -30.007812 116.796875 -34.4375 C 121.359375 -38.863281 124.914062 -44.070312 127.46875 -50.0625 C 130.03125 -56.0625 131.3125 -62.570312 131.3125 -69.59375 C 131.3125 -76.675781 130.03125 -83.234375 127.46875 -89.265625 C 124.914062 -95.296875 121.359375 -100.523438 116.796875 -104.953125 C 112.234375 -109.378906 106.953125 -112.816406 100.953125 -115.265625 C 94.960938 -117.722656 88.523438 -118.953125 81.640625 -118.953125 C 74.828125 -118.953125 68.421875 -117.722656 62.421875 -115.265625 C 56.429688 -112.816406 51.171875 -109.359375 46.640625 -104.890625 C 42.117188 -100.429688 38.578125 -95.203125 36.015625 -89.203125 C 33.460938 -83.210938 32.1875 -76.675781 32.1875 -69.59375 C 32.1875 -62.570312 33.460938 -56.0625 36.015625 -50.0625 C 38.578125 -44.070312 42.117188 -38.863281 46.640625 -34.4375 C 51.171875 -30.007812 56.429688 -26.566406 62.421875 -24.109375 C 68.421875 -21.660156 74.828125 -20.4375 81.640625 -20.4375 Z M 81.640625 -20.4375 "/></g></g><g transform="translate(167.647949, 157.931548)"><g><path d="M 143.265625 -108.21875 C 156.484375 -108.21875 166.363281 -103.738281 172.90625 -94.78125 C 179.445312 -85.820312 182.71875 -73.097656 182.71875 -56.609375 L 182.71875 0 L 158.296875 0 L 158.296875 -56.09375 C 158.296875 -66.457031 156.300781 -73.9375 152.3125 -78.53125 C 148.320312 -83.125 142.921875 -85.421875 136.109375 -85.421875 C 131.753906 -85.421875 127.632812 -84.09375 123.75 -81.4375 C 119.863281 -78.78125 116.726562 -75.066406 114.34375 -70.296875 C 111.957031 -65.535156 110.765625 -59.988281 110.765625 -53.65625 L 110.765625 0 L 86.34375 0 L 86.34375 -56.09375 C 86.34375 -66.457031 84.347656 -73.9375 80.359375 -78.53125 C 76.378906 -83.125 71.019531 -85.421875 64.28125 -85.421875 C 59.851562 -85.421875 55.710938 -84.09375 51.859375 -81.4375 C 48.015625 -78.78125 44.898438 -75.066406 42.515625 -70.296875 C 40.128906 -65.535156 38.9375 -59.988281 38.9375 -53.65625 L 38.9375 0 L 14.515625 0 L 14.515625 -105.046875 L 37.609375 -105.046875 L 37.90625 -88.703125 C 39.75 -92.441406 42.304688 -95.773438 45.578125 -98.703125 C 48.847656 -101.640625 52.675781 -103.957031 57.0625 -105.65625 C 61.457031 -107.363281 66.242188 -108.21875 71.421875 -108.21875 C 80.210938 -108.21875 87.519531 -106.191406 93.34375 -102.140625 C 99.164062 -98.085938 103.546875 -92.210938 106.484375 -84.515625 C 110.972656 -92.617188 116.351562 -98.59375 122.625 -102.4375 C 128.894531 -106.289062 135.773438 -108.21875 143.265625 -108.21875 Z M 143.265625 -108.21875 "/></g></g><g transform="translate(364.047512, 157.931548)"><g><path d="M 39.234375 0 L 14.515625 0 L 14.515625 -105.046875 L 38.015625 -105.046875 L 38.015625 -88.703125 C 40.054688 -92.515625 42.847656 -95.882812 46.390625 -98.8125 C 49.929688 -101.738281 54.050781 -104.035156 58.75 -105.703125 C 63.457031 -107.378906 68.5 -108.21875 73.875 -108.21875 C 87.976562 -108.21875 98.535156 -103.738281 105.546875 -94.78125 C 112.566406 -85.820312 116.078125 -73.097656 116.078125 -56.609375 L 116.078125 0 L 91.359375 0 L 91.359375 -56.09375 C 91.359375 -66.519531 89.175781 -74.015625 84.8125 -78.578125 C 80.457031 -83.140625 74.53125 -85.421875 67.03125 -85.421875 C 62.195312 -85.421875 57.664062 -84.195312 53.4375 -81.75 C 49.21875 -79.300781 45.796875 -75.722656 43.171875 -71.015625 C 40.546875 -66.316406 39.234375 -60.53125 39.234375 -53.65625 Z M 39.234375 0 "/></g></g><g transform="translate(493.822458, 157.931548)"><g><path d="M 26.671875 -121.40625 C 21.898438 -121.40625 18.164062 -122.78125 15.46875 -125.53125 C 12.78125 -128.289062 11.4375 -131.648438 11.4375 -135.609375 C 11.4375 -139.421875 12.78125 -142.722656 15.46875 -145.515625 C 18.164062 -148.304688 21.929688 -149.703125 26.765625 -149.703125 C 31.742188 -149.703125 35.578125 -148.304688 38.265625 -145.515625 C 40.960938 -142.722656 42.3125 -139.421875 42.3125 -135.609375 C 42.3125 -131.648438 40.960938 -128.289062 38.265625 -125.53125 C 35.578125 -122.78125 31.710938 -121.40625 26.671875 -121.40625 Z M 39.234375 0 L 14.515625 0 L 14.515625 -105.046875 L 39.234375 -105.046875 Z M 39.234375 0 "/></g></g></g><g fill="#000000" fill-opacity="1"><g transform="translate(547.605828, 157.931548)"><g><path d="M 61.3125 2.96875 C 53.75 2.96875 46.75 1.535156 40.3125 -1.328125 C 33.875 -4.191406 28.234375 -8.144531 23.390625 -13.1875 C 18.554688 -18.226562 14.796875 -24.066406 12.109375 -30.703125 C 9.421875 -37.347656 8.078125 -44.484375 8.078125 -52.109375 C 8.078125 -59.742188 9.421875 -66.878906 12.109375 -73.515625 C 14.796875 -80.160156 18.554688 -86.003906 23.390625 -91.046875 C 28.234375 -96.085938 33.875 -100.039062 40.3125 -102.90625 C 46.75 -105.769531 53.75 -107.203125 61.3125 -107.203125 C 69.625 -107.203125 77.148438 -105.597656 83.890625 -102.390625 C 90.640625 -99.191406 96.378906 -94.816406 101.109375 -89.265625 C 105.847656 -83.710938 109.238281 -77.320312 111.28125 -70.09375 L 93.203125 -70.09375 C 90.472656 -76.84375 86.265625 -81.953125 80.578125 -85.421875 C 74.890625 -88.898438 68.503906 -90.640625 61.421875 -90.640625 C 56.847656 -90.640625 52.429688 -89.753906 48.171875 -87.984375 C 43.921875 -86.210938 40.09375 -83.65625 36.6875 -80.3125 C 33.28125 -76.976562 30.585938 -72.925781 28.609375 -68.15625 C 26.640625 -63.382812 25.65625 -58.035156 25.65625 -52.109375 C 25.65625 -46.117188 26.65625 -40.738281 28.65625 -35.96875 C 30.664062 -31.195312 33.375 -27.140625 36.78125 -23.796875 C 40.1875 -20.460938 44.019531 -17.910156 48.28125 -16.140625 C 52.539062 -14.367188 56.921875 -13.484375 61.421875 -13.484375 C 68.429688 -13.484375 74.796875 -15.269531 80.515625 -18.84375 C 86.242188 -22.425781 90.472656 -27.796875 93.203125 -34.953125 L 111.1875 -34.953125 C 109.207031 -27.453125 105.863281 -20.859375 101.15625 -15.171875 C 96.457031 -9.484375 90.703125 -5.035156 83.890625 -1.828125 C 77.078125 1.367188 69.550781 2.96875 61.3125 2.96875 Z M 61.3125 2.96875 "/></g></g><g transform="translate(665.425129, 157.931548)"><g><path d="M 34.4375 0 L 16.859375 0 L 16.859375 -143.875 L 34.4375 -143.875 L 34.4375 -95.546875 L 34.125 -84.40625 C 36.238281 -88.90625 39.132812 -92.875 42.8125 -96.3125 C 46.488281 -99.75 50.832031 -102.421875 55.84375 -104.328125 C 60.851562 -106.242188 66.285156 -107.203125 72.140625 -107.203125 C 85.972656 -107.203125 96.460938 -102.925781 103.609375 -94.375 C 110.765625 -85.820312 114.34375 -73.203125 114.34375 -56.515625 L 114.34375 0 L 96.765625 0 L 96.765625 -56.203125 C 96.765625 -68.191406 94.175781 -76.945312 89 -82.46875 C 83.820312 -87.988281 76.707031 -90.75 67.65625 -90.75 C 63.289062 -90.75 59.113281 -89.878906 55.125 -88.140625 C 51.144531 -86.398438 47.601562 -83.925781 44.5 -80.71875 C 41.40625 -77.519531 38.953125 -73.722656 37.140625 -69.328125 C 35.335938 -64.941406 34.4375 -60.085938 34.4375 -54.765625 Z M 34.4375 0 "/></g></g><g transform="translate(795.404445, 157.931548)"><g><path d="M 58.453125 2.96875 C 51.296875 2.96875 44.671875 1.554688 38.578125 -1.265625 C 32.484375 -4.097656 27.148438 -8.035156 22.578125 -13.078125 C 18.015625 -18.117188 14.457031 -23.976562 11.90625 -30.65625 C 9.351562 -37.332031 8.078125 -44.484375 8.078125 -52.109375 C 8.078125 -59.742188 9.351562 -66.878906 11.90625 -73.515625 C 14.457031 -80.160156 18.015625 -86.003906 22.578125 -91.046875 C 27.148438 -96.085938 32.484375 -100.019531 38.578125 -102.84375 C 44.671875 -105.675781 51.257812 -107.09375 58.34375 -107.09375 C 64.613281 -107.09375 70.4375 -106.070312 75.8125 -104.03125 C 81.195312 -101.988281 85.953125 -99.078125 90.078125 -95.296875 C 94.203125 -91.515625 97.421875 -87.035156 99.734375 -81.859375 L 99.734375 -104.234375 L 116.59375 -104.234375 L 116.59375 0 L 99.734375 0 L 99.734375 -22.171875 C 97.421875 -17.066406 94.203125 -12.625 90.078125 -8.84375 C 85.953125 -5.0625 81.195312 -2.144531 75.8125 -0.09375 C 70.4375 1.945312 64.648438 2.96875 58.453125 2.96875 Z M 62.328125 -13.484375 C 67.441406 -13.484375 72.226562 -14.453125 76.6875 -16.390625 C 81.15625 -18.335938 85.054688 -21.066406 88.390625 -24.578125 C 91.734375 -28.085938 94.359375 -32.191406 96.265625 -36.890625 C 98.171875 -41.585938 99.125 -46.660156 99.125 -52.109375 C 99.125 -57.492188 98.171875 -62.519531 96.265625 -67.1875 C 94.359375 -71.851562 91.71875 -75.941406 88.34375 -79.453125 C 84.96875 -82.960938 81.066406 -85.703125 76.640625 -87.671875 C 72.210938 -89.648438 67.476562 -90.640625 62.4375 -90.640625 C 57.320312 -90.640625 52.550781 -89.703125 48.125 -87.828125 C 43.695312 -85.953125 39.78125 -83.273438 36.375 -79.796875 C 32.96875 -76.328125 30.3125 -72.257812 28.40625 -67.59375 C 26.5 -62.925781 25.546875 -57.765625 25.546875 -52.109375 C 25.546875 -46.328125 26.515625 -41.066406 28.453125 -36.328125 C 30.398438 -31.585938 33.054688 -27.515625 36.421875 -24.109375 C 39.796875 -20.703125 43.710938 -18.078125 48.171875 -16.234375 C 52.640625 -14.398438 57.359375 -13.484375 62.328125 -13.484375 Z M 62.328125 -13.484375 "/></g></g><g transform="translate(928.85805, 157.931548)"><g><path d="M 34.4375 0 L 16.859375 0 L 16.859375 -104.234375 L 33.71875 -104.234375 L 33.71875 -84.09375 C 35.695312 -88.59375 38.578125 -92.578125 42.359375 -96.046875 C 46.140625 -99.523438 50.582031 -102.253906 55.6875 -104.234375 C 60.800781 -106.210938 66.285156 -107.203125 72.140625 -107.203125 C 85.972656 -107.203125 96.460938 -102.925781 103.609375 -94.375 C 110.765625 -85.820312 114.34375 -73.203125 114.34375 -56.515625 L 114.34375 0 L 96.765625 0 L 96.765625 -56.203125 C 96.765625 -68.191406 94.175781 -76.945312 89 -82.46875 C 83.820312 -87.988281 76.707031 -90.75 67.65625 -90.75 C 63.289062 -90.75 59.113281 -89.929688 55.125 -88.296875 C 51.144531 -86.660156 47.601562 -84.273438 44.5 -81.140625 C 41.40625 -78.003906 38.953125 -74.222656 37.140625 -69.796875 C 35.335938 -65.367188 34.4375 -60.359375 34.4375 -54.765625 Z M 34.4375 0 "/></g></g><g transform="translate(1058.837366, 157.931548)"><g><path d="M 34.4375 0 L 16.859375 0 L 16.859375 -104.234375 L 33.71875 -104.234375 L 33.71875 -84.09375 C 35.695312 -88.59375 38.578125 -92.578125 42.359375 -96.046875 C 46.140625 -99.523438 50.582031 -102.253906 55.6875 -104.234375 C 60.800781 -106.210938 66.285156 -107.203125 72.140625 -107.203125 C 85.972656 -107.203125 96.460938 -102.925781 103.609375 -94.375 C 110.765625 -85.820312 114.34375 -73.203125 114.34375 -56.515625 L 114.34375 0 L 96.765625 0 L 96.765625 -56.203125 C 96.765625 -68.191406 94.175781 -76.945312 89 -82.46875 C 83.820312 -87.988281 76.707031 -90.75 67.65625 -90.75 C 63.289062 -90.75 59.113281 -89.929688 55.125 -88.296875 C 51.144531 -86.660156 47.601562 -84.273438 44.5 -81.140625 C 41.40625 -78.003906 38.953125 -74.222656 37.140625 -69.796875 C 35.335938 -65.367188 34.4375 -60.359375 34.4375 -54.765625 Z M 34.4375 0 "/></g></g><g transform="translate(1188.816682, 157.931548)"><g><path d="M 112.609375 -54.671875 C 112.609375 -53.785156 112.59375 -52.847656 112.5625 -51.859375 C 112.53125 -50.867188 112.445312 -49.421875 112.3125 -47.515625 L 25.859375 -47.515625 C 26.609375 -40.566406 28.648438 -34.535156 31.984375 -29.421875 C 35.316406 -24.316406 39.503906 -20.382812 44.546875 -17.625 C 49.585938 -14.863281 54.972656 -13.484375 60.703125 -13.484375 C 67.710938 -13.484375 73.703125 -15 78.671875 -18.03125 C 83.648438 -21.0625 87.300781 -25.507812 89.625 -31.375 L 109.34375 -31.375 C 107.84375 -26.601562 105.609375 -22.140625 102.640625 -17.984375 C 99.679688 -13.828125 96.109375 -10.195312 91.921875 -7.09375 C 87.734375 -4 83.03125 -1.566406 77.8125 0.203125 C 72.601562 1.972656 67.035156 2.859375 61.109375 2.859375 C 53.546875 2.859375 46.546875 1.445312 40.109375 -1.375 C 33.671875 -4.207031 28.050781 -8.144531 23.25 -13.1875 C 18.445312 -18.226562 14.71875 -24.066406 12.0625 -30.703125 C 9.40625 -37.347656 8.078125 -44.484375 8.078125 -52.109375 C 8.078125 -59.742188 9.40625 -66.878906 12.0625 -73.515625 C 14.71875 -80.160156 18.445312 -86.003906 23.25 -91.046875 C 28.050781 -96.085938 33.671875 -100.039062 40.109375 -102.90625 C 46.546875 -105.769531 53.546875 -107.203125 61.109375 -107.203125 C 68.597656 -107.203125 75.492188 -105.800781 81.796875 -103 C 88.097656 -100.207031 93.546875 -96.359375 98.140625 -91.453125 C 102.742188 -86.546875 106.304688 -80.941406 108.828125 -74.640625 C 111.347656 -68.347656 112.609375 -61.691406 112.609375 -54.671875 Z M 26.671875 -63.046875 L 94.625 -63.046875 C 94.351562 -66.722656 93.28125 -70.226562 91.40625 -73.5625 C 89.53125 -76.90625 87.0625 -79.851562 84 -82.40625 C 80.9375 -84.96875 77.410156 -86.976562 73.421875 -88.4375 C 69.429688 -89.90625 65.222656 -90.640625 60.796875 -90.640625 C 55.617188 -90.640625 50.679688 -89.582031 45.984375 -87.46875 C 41.285156 -85.363281 37.234375 -82.265625 33.828125 -78.171875 C 30.421875 -74.085938 28.035156 -69.046875 26.671875 -63.046875 Z M 26.671875 -63.046875 "/></g></g><g transform="translate(1307.862204, 157.931548)"><g><path d="M 34.4375 0 L 16.859375 0 L 16.859375 -144.078125 L 34.4375 -144.078125 Z M 34.4375 0 "/></g></g></g></g></g></g></g></g></svg>