<svg xmlns="http://www.w3.org/2000/svg" xmlns:xlink="http://www.w3.org/1999/xlink" width="2559" zoomAndPan="magnify" viewBox="0 0 1919.25 435.749989" height="581" preserveAspectRatio="xMidYMid meet" version="1.0"><defs><g/><clipPath id="414283a285"><path d="M 845 55 L 1842 55 L 1842 435.5 L 845 435.5 Z M 845 55 " clip-rule="nonzero"/></clipPath><clipPath id="ab7d77326e"><rect x="0" width="997" y="0" height="381"/></clipPath><clipPath id="33524271d8"><rect x="0" width="385" y="0" height="59"/></clipPath><clipPath id="057e03b10a"><path d="M 0.078125 186 L 175 186 L 175 362 L 0.078125 362 Z M 0.078125 186 " clip-rule="nonzero"/></clipPath><clipPath id="564d018c96"><path d="M 174 2.277344 L 350 2.277344 L 350 177 L 174 177 Z M 174 2.277344 " clip-rule="nonzero"/></clipPath><clipPath id="6f6c6c9129"><path d="M 344 191 L 520 191 L 520 366.449219 L 344 366.449219 Z M 344 191 " clip-rule="nonzero"/></clipPath><clipPath id="2d43de17ca"><path d="M 514 17 L 689.105469 17 L 689.105469 192 L 514 192 Z M 514 17 " clip-rule="nonzero"/></clipPath><clipPath id="075ae713aa"><path d="M 492.148438 4 L 714 4 L 714 227 L 492.148438 227 Z M 492.148438 4 " clip-rule="nonzero"/></clipPath><clipPath id="b55c7a5710"><rect x="0" width="743" y="0" height="367"/></clipPath></defs><g clip-path="url(#414283a285)"><g transform="matrix(1, 0, 0, 1, 845, 55)"><g clip-path="url(#ab7d77326e)"><g fill="#000000" fill-opacity="1"><g transform="translate(1.104004, 304.530957)"><g><path d="M 253.3125 -63.484375 L 253.3125 -293.6875 L 291.3125 -293.6875 L 291.3125 0 L 258.921875 0 L 78.171875 -229.5625 L 78.171875 0 L 39.953125 0 L 39.953125 -293.6875 L 72.125 -293.6875 L 253.09375 -63.484375 Z M 253.3125 -63.484375 "/></g></g><g transform="translate(332.37117, 304.530957)"><g><path d="M 237.984375 -115.53125 C 237.984375 -113.65625 237.945312 -111.675781 237.875 -109.59375 C 237.800781 -107.507812 237.617188 -104.453125 237.328125 -100.421875 L 54.640625 -100.421875 C 56.222656 -85.734375 60.539062 -72.988281 67.59375 -62.1875 C 74.644531 -51.394531 83.5 -43.082031 94.15625 -37.25 C 104.8125 -31.414062 116.1875 -28.5 128.28125 -28.5 C 143.101562 -28.5 155.769531 -31.703125 166.28125 -38.109375 C 176.789062 -44.515625 184.492188 -53.910156 189.390625 -66.296875 L 231.0625 -66.296875 C 227.894531 -56.222656 223.179688 -46.789062 216.921875 -38 C 210.660156 -29.21875 203.101562 -21.550781 194.25 -15 C 185.394531 -8.457031 175.457031 -3.316406 164.4375 0.421875 C 153.425781 4.171875 141.660156 6.046875 129.140625 6.046875 C 113.160156 6.046875 98.367188 3.0625 84.765625 -2.90625 C 71.160156 -8.882812 59.28125 -17.203125 49.125 -27.859375 C 38.976562 -38.515625 31.097656 -50.859375 25.484375 -64.890625 C 19.867188 -78.929688 17.0625 -94.015625 17.0625 -110.140625 C 17.0625 -126.265625 19.867188 -141.34375 25.484375 -155.375 C 31.097656 -169.414062 38.976562 -181.757812 49.125 -192.40625 C 59.28125 -203.0625 71.160156 -211.410156 84.765625 -217.453125 C 98.367188 -223.503906 113.160156 -226.53125 129.140625 -226.53125 C 144.972656 -226.53125 159.546875 -223.578125 172.859375 -217.671875 C 186.179688 -211.773438 197.703125 -203.644531 207.421875 -193.28125 C 217.140625 -182.914062 224.660156 -171.070312 229.984375 -157.75 C 235.316406 -144.4375 237.984375 -130.363281 237.984375 -115.53125 Z M 56.359375 -133.234375 L 199.96875 -133.234375 C 199.394531 -141.015625 197.128906 -148.429688 193.171875 -155.484375 C 189.210938 -162.535156 183.992188 -168.757812 177.515625 -174.15625 C 171.035156 -179.5625 163.582031 -183.8125 155.15625 -186.90625 C 146.738281 -190 137.847656 -191.546875 128.484375 -191.546875 C 117.546875 -191.546875 107.109375 -189.3125 97.171875 -184.84375 C 87.242188 -180.382812 78.679688 -173.835938 71.484375 -165.203125 C 64.285156 -156.566406 59.242188 -145.910156 56.359375 -133.234375 Z M 56.359375 -133.234375 "/></g></g></g><g fill="#000000" fill-opacity="1"><g transform="translate(574.019135, 304.530957)"><g><path d="M 52.046875 0 L 8.421875 0 L 84.875 -112.296875 L 10.359375 -220.265625 L 54.421875 -220.265625 L 110.5625 -137.34375 L 110.78125 -137.34375 L 167.140625 -220.265625 L 210.984375 -220.265625 L 136.484375 -112.296875 L 213.140625 0 L 168.4375 0 L 110.34375 -85.953125 Z M 52.046875 0 "/></g></g><g transform="translate(795.583744, 304.530957)"><g><path d="M 161.3125 0 L 120.71875 0 C 112.363281 0 104.082031 -1.078125 95.875 -3.234375 C 87.675781 -5.398438 80.226562 -9.359375 73.53125 -15.109375 C 66.832031 -20.867188 61.46875 -29.113281 57.4375 -39.84375 C 53.40625 -50.570312 51.390625 -64.5 51.390625 -81.625 L 51.390625 -187.65625 L 2.375 -187.65625 L 2.375 -220.265625 L 51.390625 -220.265625 L 51.390625 -285.703125 L 88.546875 -285.921875 L 88.546875 -220.265625 L 161.3125 -220.265625 L 161.3125 -187.65625 L 88.546875 -187.65625 L 88.546875 -79.90625 C 88.546875 -69.675781 89.660156 -61.359375 91.890625 -54.953125 C 94.117188 -48.546875 97.140625 -43.648438 100.953125 -40.265625 C 104.765625 -36.890625 109.007812 -34.585938 113.6875 -33.359375 C 118.375 -32.140625 123.164062 -31.53125 128.0625 -31.53125 L 161.3125 -31.53125 Z M 161.3125 0 "/></g></g></g></g></g></g><g transform="matrix(1, 0, 0, 1, 1418, 369)"><g clip-path="url(#33524271d8)"><g fill="#000000" fill-opacity="1"><g transform="translate(2.344674, 44.072107)"><g><path d="M 22.765625 0.828125 C 20.460938 0.828125 18.265625 0.488281 16.171875 -0.1875 C 14.085938 -0.863281 12.175781 -1.816406 10.4375 -3.046875 C 8.695312 -4.285156 7.1875 -5.75 5.90625 -7.4375 C 4.625 -9.125 3.628906 -10.984375 2.921875 -13.015625 C 2.222656 -15.046875 1.875 -17.179688 1.875 -19.421875 C 1.875 -21.679688 2.222656 -23.820312 2.921875 -25.84375 C 3.628906 -27.875 4.625 -29.726562 5.90625 -31.40625 C 7.1875 -33.082031 8.695312 -34.539062 10.4375 -35.78125 C 12.175781 -37.019531 14.085938 -37.972656 16.171875 -38.640625 C 18.265625 -39.316406 20.460938 -39.65625 22.765625 -39.65625 C 25.054688 -39.65625 27.242188 -39.316406 29.328125 -38.640625 C 31.421875 -37.972656 33.34375 -37.019531 35.09375 -35.78125 C 36.84375 -34.539062 38.359375 -33.082031 39.640625 -31.40625 C 40.921875 -29.726562 41.910156 -27.875 42.609375 -25.84375 C 43.316406 -23.820312 43.671875 -21.679688 43.671875 -19.421875 C 43.671875 -17.179688 43.316406 -15.046875 42.609375 -13.015625 C 41.910156 -10.984375 40.921875 -9.125 39.640625 -7.4375 C 38.359375 -5.75 36.84375 -4.285156 35.09375 -3.046875 C 33.34375 -1.816406 31.425781 -0.863281 29.34375 -0.1875 C 27.269531 0.488281 25.078125 0.828125 22.765625 0.828125 Z M 22.765625 -5.703125 C 24.679688 -5.703125 26.472656 -6.039062 28.140625 -6.71875 C 29.816406 -7.40625 31.289062 -8.363281 32.5625 -9.59375 C 33.832031 -10.832031 34.820312 -12.285156 35.53125 -13.953125 C 36.25 -15.628906 36.609375 -17.445312 36.609375 -19.40625 C 36.609375 -21.375 36.25 -23.195312 35.53125 -24.875 C 34.820312 -26.5625 33.832031 -28.019531 32.5625 -29.25 C 31.289062 -30.488281 29.816406 -31.445312 28.140625 -32.125 C 26.472656 -32.8125 24.679688 -33.15625 22.765625 -33.15625 C 20.859375 -33.15625 19.070312 -32.8125 17.40625 -32.125 C 15.738281 -31.445312 14.269531 -30.484375 13 -29.234375 C 11.738281 -27.992188 10.75 -26.535156 10.03125 -24.859375 C 9.320312 -23.191406 8.96875 -21.375 8.96875 -19.40625 C 8.96875 -17.445312 9.320312 -15.628906 10.03125 -13.953125 C 10.75 -12.285156 11.738281 -10.832031 13 -9.59375 C 14.269531 -8.363281 15.738281 -7.40625 17.40625 -6.71875 C 19.070312 -6.039062 20.859375 -5.703125 22.765625 -5.703125 Z M 22.765625 -5.703125 "/></g></g><g transform="translate(47.892722, 44.072107)"><g><path d="M 39.9375 -30.171875 C 43.625 -30.171875 46.378906 -28.921875 48.203125 -26.421875 C 50.023438 -23.921875 50.9375 -20.375 50.9375 -15.78125 L 50.9375 0 L 44.125 0 L 44.125 -15.640625 C 44.125 -18.523438 43.566406 -20.609375 42.453125 -21.890625 C 41.347656 -23.171875 39.847656 -23.8125 37.953125 -23.8125 C 36.734375 -23.8125 35.582031 -23.441406 34.5 -22.703125 C 33.414062 -21.960938 32.539062 -20.925781 31.875 -19.59375 C 31.207031 -18.269531 30.875 -16.722656 30.875 -14.953125 L 30.875 0 L 24.078125 0 L 24.078125 -15.640625 C 24.078125 -18.523438 23.519531 -20.609375 22.40625 -21.890625 C 21.289062 -23.171875 19.796875 -23.8125 17.921875 -23.8125 C 16.679688 -23.8125 15.523438 -23.441406 14.453125 -22.703125 C 13.378906 -21.960938 12.507812 -20.925781 11.84375 -19.59375 C 11.1875 -18.269531 10.859375 -16.722656 10.859375 -14.953125 L 10.859375 0 L 4.046875 0 L 4.046875 -29.28125 L 10.484375 -29.28125 L 10.5625 -24.734375 C 11.082031 -25.773438 11.796875 -26.703125 12.703125 -27.515625 C 13.617188 -28.335938 14.6875 -28.984375 15.90625 -29.453125 C 17.132812 -29.929688 18.46875 -30.171875 19.90625 -30.171875 C 22.363281 -30.171875 24.398438 -29.601562 26.015625 -28.46875 C 27.640625 -27.34375 28.863281 -25.707031 29.6875 -23.5625 C 30.9375 -25.820312 32.4375 -27.488281 34.1875 -28.5625 C 35.9375 -29.632812 37.851562 -30.171875 39.9375 -30.171875 Z M 39.9375 -30.171875 "/></g></g><g transform="translate(102.641533, 44.072107)"><g><path d="M 10.9375 0 L 4.046875 0 L 4.046875 -29.28125 L 10.59375 -29.28125 L 10.59375 -24.734375 C 11.164062 -25.796875 11.945312 -26.734375 12.9375 -27.546875 C 13.925781 -28.359375 15.070312 -29 16.375 -29.46875 C 17.6875 -29.9375 19.09375 -30.171875 20.59375 -30.171875 C 24.53125 -30.171875 27.472656 -28.921875 29.421875 -26.421875 C 31.378906 -23.921875 32.359375 -20.375 32.359375 -15.78125 L 32.359375 0 L 25.46875 0 L 25.46875 -15.640625 C 25.46875 -18.546875 24.859375 -20.632812 23.640625 -21.90625 C 22.429688 -23.175781 20.78125 -23.8125 18.6875 -23.8125 C 17.34375 -23.8125 16.082031 -23.46875 14.90625 -22.78125 C 13.726562 -22.101562 12.769531 -21.109375 12.03125 -19.796875 C 11.300781 -18.484375 10.9375 -16.867188 10.9375 -14.953125 Z M 10.9375 0 "/></g></g><g transform="translate(138.817907, 44.072107)"><g><path d="M 7.4375 -33.84375 C 6.101562 -33.84375 5.0625 -34.226562 4.3125 -35 C 3.5625 -35.769531 3.1875 -36.703125 3.1875 -37.796875 C 3.1875 -38.867188 3.5625 -39.789062 4.3125 -40.5625 C 5.0625 -41.34375 6.113281 -41.734375 7.46875 -41.734375 C 8.851562 -41.734375 9.921875 -41.34375 10.671875 -40.5625 C 11.421875 -39.789062 11.796875 -38.867188 11.796875 -37.796875 C 11.796875 -36.703125 11.421875 -35.769531 10.671875 -35 C 9.921875 -34.226562 8.84375 -33.84375 7.4375 -33.84375 Z M 10.9375 0 L 4.046875 0 L 4.046875 -29.28125 L 10.9375 -29.28125 Z M 10.9375 0 "/></g></g></g><g fill="#000000" fill-opacity="1"><g transform="translate(153.810687, 44.072107)"><g><path d="M 17.09375 0.828125 C 14.988281 0.828125 13.035156 0.429688 11.234375 -0.359375 C 9.441406 -1.160156 7.867188 -2.265625 6.515625 -3.671875 C 5.171875 -5.078125 4.125 -6.707031 3.375 -8.5625 C 2.625 -10.414062 2.25 -12.40625 2.25 -14.53125 C 2.25 -16.65625 2.625 -18.644531 3.375 -20.5 C 4.125 -22.351562 5.171875 -23.976562 6.515625 -25.375 C 7.867188 -26.78125 9.441406 -27.882812 11.234375 -28.6875 C 13.035156 -29.488281 14.988281 -29.890625 17.09375 -29.890625 C 19.40625 -29.890625 21.5 -29.441406 23.375 -28.546875 C 25.257812 -27.648438 26.863281 -26.425781 28.1875 -24.875 C 29.507812 -23.332031 30.457031 -21.554688 31.03125 -19.546875 L 25.984375 -19.546875 C 25.222656 -21.421875 24.046875 -22.84375 22.453125 -23.8125 C 20.867188 -24.78125 19.09375 -25.265625 17.125 -25.265625 C 15.851562 -25.265625 14.625 -25.015625 13.4375 -24.515625 C 12.25 -24.023438 11.175781 -23.316406 10.21875 -22.390625 C 9.269531 -21.460938 8.519531 -20.332031 7.96875 -19 C 7.425781 -17.664062 7.15625 -16.175781 7.15625 -14.53125 C 7.15625 -12.851562 7.429688 -11.347656 7.984375 -10.015625 C 8.546875 -8.691406 9.300781 -7.5625 10.25 -6.625 C 11.207031 -5.695312 12.273438 -4.988281 13.453125 -4.5 C 14.640625 -4.007812 15.863281 -3.765625 17.125 -3.765625 C 19.082031 -3.765625 20.859375 -4.257812 22.453125 -5.25 C 24.046875 -6.25 25.222656 -7.75 25.984375 -9.75 L 31 -9.75 C 30.445312 -7.65625 29.515625 -5.816406 28.203125 -4.234375 C 26.890625 -2.648438 25.285156 -1.410156 23.390625 -0.515625 C 21.492188 0.378906 19.394531 0.828125 17.09375 0.828125 Z M 17.09375 0.828125 "/></g></g><g transform="translate(186.654277, 44.072107)"><g><path d="M 9.59375 0 L 4.703125 0 L 4.703125 -40.109375 L 9.59375 -40.109375 L 9.59375 -26.640625 L 9.515625 -23.53125 C 10.097656 -24.78125 10.898438 -25.882812 11.921875 -26.84375 C 12.953125 -27.800781 14.164062 -28.546875 15.5625 -29.078125 C 16.957031 -29.617188 18.472656 -29.890625 20.109375 -29.890625 C 23.960938 -29.890625 26.882812 -28.695312 28.875 -26.3125 C 30.875 -23.925781 31.875 -20.40625 31.875 -15.75 L 31.875 0 L 26.984375 0 L 26.984375 -15.671875 C 26.984375 -19.015625 26.257812 -21.453125 24.8125 -22.984375 C 23.363281 -24.523438 21.378906 -25.296875 18.859375 -25.296875 C 17.640625 -25.296875 16.472656 -25.050781 15.359375 -24.5625 C 14.253906 -24.082031 13.269531 -23.394531 12.40625 -22.5 C 11.539062 -21.613281 10.851562 -20.554688 10.34375 -19.328125 C 9.84375 -18.097656 9.59375 -16.742188 9.59375 -15.265625 Z M 9.59375 0 "/></g></g><g transform="translate(222.887621, 44.072107)"><g><path d="M 16.296875 0.828125 C 14.296875 0.828125 12.445312 0.4375 10.75 -0.34375 C 9.050781 -1.132812 7.566406 -2.234375 6.296875 -3.640625 C 5.023438 -5.046875 4.03125 -6.679688 3.3125 -8.546875 C 2.601562 -10.410156 2.25 -12.40625 2.25 -14.53125 C 2.25 -16.65625 2.601562 -18.644531 3.3125 -20.5 C 4.03125 -22.351562 5.023438 -23.976562 6.296875 -25.375 C 7.566406 -26.78125 9.050781 -27.878906 10.75 -28.671875 C 12.445312 -29.460938 14.285156 -29.859375 16.265625 -29.859375 C 18.015625 -29.859375 19.640625 -29.570312 21.140625 -29 C 22.640625 -28.425781 23.960938 -27.613281 25.109375 -26.5625 C 26.253906 -25.507812 27.148438 -24.257812 27.796875 -22.8125 L 27.796875 -29.0625 L 32.5 -29.0625 L 32.5 0 L 27.796875 0 L 27.796875 -6.1875 C 27.148438 -4.757812 26.253906 -3.519531 25.109375 -2.46875 C 23.960938 -1.414062 22.640625 -0.601562 21.140625 -0.03125 C 19.640625 0.539062 18.023438 0.828125 16.296875 0.828125 Z M 17.375 -3.765625 C 18.800781 -3.765625 20.132812 -4.035156 21.375 -4.578125 C 22.625 -5.117188 23.710938 -5.875 24.640625 -6.84375 C 25.566406 -7.820312 26.296875 -8.96875 26.828125 -10.28125 C 27.367188 -11.59375 27.640625 -13.007812 27.640625 -14.53125 C 27.640625 -16.03125 27.367188 -17.429688 26.828125 -18.734375 C 26.296875 -20.035156 25.5625 -21.171875 24.625 -22.140625 C 23.6875 -23.117188 22.597656 -23.882812 21.359375 -24.4375 C 20.128906 -24.988281 18.8125 -25.265625 17.40625 -25.265625 C 15.976562 -25.265625 14.644531 -25.003906 13.40625 -24.484375 C 12.175781 -23.960938 11.085938 -23.21875 10.140625 -22.25 C 9.191406 -21.28125 8.453125 -20.144531 7.921875 -18.84375 C 7.390625 -17.539062 7.125 -16.101562 7.125 -14.53125 C 7.125 -12.914062 7.394531 -11.445312 7.9375 -10.125 C 8.476562 -8.800781 9.21875 -7.664062 10.15625 -6.71875 C 11.09375 -5.769531 12.179688 -5.039062 13.421875 -4.53125 C 14.671875 -4.019531 15.988281 -3.765625 17.375 -3.765625 Z M 17.375 -3.765625 "/></g></g><g transform="translate(260.089466, 44.072107)"><g><path d="M 9.59375 0 L 4.703125 0 L 4.703125 -29.0625 L 9.40625 -29.0625 L 9.40625 -23.453125 C 9.957031 -24.703125 10.757812 -25.8125 11.8125 -26.78125 C 12.863281 -27.75 14.097656 -28.507812 15.515625 -29.0625 C 16.941406 -29.613281 18.472656 -29.890625 20.109375 -29.890625 C 23.960938 -29.890625 26.882812 -28.695312 28.875 -26.3125 C 30.875 -23.925781 31.875 -20.40625 31.875 -15.75 L 31.875 0 L 26.984375 0 L 26.984375 -15.671875 C 26.984375 -19.015625 26.257812 -21.453125 24.8125 -22.984375 C 23.363281 -24.523438 21.378906 -25.296875 18.859375 -25.296875 C 17.640625 -25.296875 16.472656 -25.066406 15.359375 -24.609375 C 14.253906 -24.160156 13.269531 -23.5 12.40625 -22.625 C 11.539062 -21.75 10.851562 -20.691406 10.34375 -19.453125 C 9.84375 -18.222656 9.59375 -16.828125 9.59375 -15.265625 Z M 9.59375 0 "/></g></g><g transform="translate(296.322811, 44.072107)"><g><path d="M 9.59375 0 L 4.703125 0 L 4.703125 -29.0625 L 9.40625 -29.0625 L 9.40625 -23.453125 C 9.957031 -24.703125 10.757812 -25.8125 11.8125 -26.78125 C 12.863281 -27.75 14.097656 -28.507812 15.515625 -29.0625 C 16.941406 -29.613281 18.472656 -29.890625 20.109375 -29.890625 C 23.960938 -29.890625 26.882812 -28.695312 28.875 -26.3125 C 30.875 -23.925781 31.875 -20.40625 31.875 -15.75 L 31.875 0 L 26.984375 0 L 26.984375 -15.671875 C 26.984375 -19.015625 26.257812 -21.453125 24.8125 -22.984375 C 23.363281 -24.523438 21.378906 -25.296875 18.859375 -25.296875 C 17.640625 -25.296875 16.472656 -25.066406 15.359375 -24.609375 C 14.253906 -24.160156 13.269531 -23.5 12.40625 -22.625 C 11.539062 -21.75 10.851562 -20.691406 10.34375 -19.453125 C 9.84375 -18.222656 9.59375 -16.828125 9.59375 -15.265625 Z M 9.59375 0 "/></g></g><g transform="translate(332.556155, 44.072107)"><g><path d="M 31.390625 -15.234375 C 31.390625 -14.992188 31.382812 -14.734375 31.375 -14.453125 C 31.363281 -14.179688 31.34375 -13.78125 31.3125 -13.25 L 7.203125 -13.25 C 7.410156 -11.3125 7.976562 -9.628906 8.90625 -8.203125 C 9.84375 -6.773438 11.015625 -5.675781 12.421875 -4.90625 C 13.828125 -4.144531 15.328125 -3.765625 16.921875 -3.765625 C 18.878906 -3.765625 20.550781 -4.1875 21.9375 -5.03125 C 23.320312 -5.875 24.335938 -7.113281 24.984375 -8.75 L 30.484375 -8.75 C 30.066406 -7.414062 29.441406 -6.171875 28.609375 -5.015625 C 27.785156 -3.859375 26.789062 -2.847656 25.625 -1.984375 C 24.457031 -1.117188 23.144531 -0.441406 21.6875 0.046875 C 20.238281 0.546875 18.6875 0.796875 17.03125 0.796875 C 14.925781 0.796875 12.972656 0.40625 11.171875 -0.375 C 9.378906 -1.164062 7.8125 -2.265625 6.46875 -3.671875 C 5.132812 -5.078125 4.097656 -6.707031 3.359375 -8.5625 C 2.617188 -10.414062 2.25 -12.40625 2.25 -14.53125 C 2.25 -16.65625 2.617188 -18.644531 3.359375 -20.5 C 4.097656 -22.351562 5.132812 -23.976562 6.46875 -25.375 C 7.8125 -26.78125 9.378906 -27.882812 11.171875 -28.6875 C 12.972656 -29.488281 14.925781 -29.890625 17.03125 -29.890625 C 19.125 -29.890625 21.046875 -29.5 22.796875 -28.71875 C 24.554688 -27.9375 26.078125 -26.863281 27.359375 -25.5 C 28.640625 -24.132812 29.628906 -22.570312 30.328125 -20.8125 C 31.035156 -19.050781 31.390625 -17.191406 31.390625 -15.234375 Z M 7.4375 -17.578125 L 26.375 -17.578125 C 26.300781 -18.597656 26.003906 -19.570312 25.484375 -20.5 C 24.960938 -21.4375 24.273438 -22.257812 23.421875 -22.96875 C 22.566406 -23.6875 21.582031 -24.25 20.46875 -24.65625 C 19.351562 -25.0625 18.179688 -25.265625 16.953125 -25.265625 C 15.503906 -25.265625 14.125 -24.96875 12.8125 -24.375 C 11.507812 -23.789062 10.378906 -22.925781 9.421875 -21.78125 C 8.472656 -20.644531 7.8125 -19.242188 7.4375 -17.578125 Z M 7.4375 -17.578125 "/></g></g><g transform="translate(365.741569, 44.072107)"><g><path d="M 9.59375 0 L 4.703125 0 L 4.703125 -40.171875 L 9.59375 -40.171875 Z M 9.59375 0 "/></g></g></g></g></g><g transform="matrix(1, 0, 0, 1, 104, 37)"><g clip-path="url(#b55c7a5710)"><g clip-path="url(#057e03b10a)"><path fill="#2781f6" d="M 174.945312 273.984375 C 174.945312 322.15625 135.800781 361.207031 87.515625 361.207031 C 39.226562 361.207031 0.0820312 322.15625 0.0820312 273.984375 C 0.0820312 225.8125 39.226562 186.761719 87.515625 186.761719 C 135.800781 186.761719 174.945312 225.8125 174.945312 273.984375 Z M 174.945312 273.984375 " fill-opacity="1" fill-rule="nonzero"/></g><g clip-path="url(#564d018c96)"><path fill="#2781f6" d="M 349.808594 89.5 C 349.808594 137.671875 310.664062 176.722656 262.378906 176.722656 C 214.089844 176.722656 174.945312 137.671875 174.945312 89.5 C 174.945312 41.328125 214.089844 2.277344 262.378906 2.277344 C 310.664062 2.277344 349.808594 41.328125 349.808594 89.5 Z M 349.808594 89.5 " fill-opacity="1" fill-rule="nonzero"/></g><g clip-path="url(#6f6c6c9129)"><path fill="#2781f6" d="M 519.527344 279.117188 C 519.527344 327.289062 480.386719 366.339844 432.097656 366.339844 C 383.808594 366.339844 344.667969 327.289062 344.667969 279.117188 C 344.667969 230.945312 383.808594 191.894531 432.097656 191.894531 C 480.386719 191.894531 519.527344 230.945312 519.527344 279.117188 Z M 519.527344 279.117188 " fill-opacity="1" fill-rule="nonzero"/></g><g clip-path="url(#2d43de17ca)"><path fill="#2781f6" d="M 689.25 104.671875 C 689.25 152.839844 650.105469 191.894531 601.816406 191.894531 C 553.53125 191.894531 514.386719 152.839844 514.386719 104.671875 C 514.386719 56.496094 553.53125 17.445312 601.816406 17.445312 C 650.105469 17.445312 689.25 56.496094 689.25 104.671875 Z M 689.25 104.671875 " fill-opacity="1" fill-rule="nonzero"/></g><path fill="#2781f6" d="M 257.234375 191.890625 C 197.574219 191.890625 177.519531 256.660156 174.945312 281.457031 L 82.59375 189.328125 C 107.453125 186.761719 172.890625 164.699219 174.945312 96.972656 C 316.894531 92.867188 350.667969 95.261719 349.808594 96.972656 C 345.695312 168.804688 418.160156 190.183594 447.304688 191.890625 L 344.667969 281.457031 C 340.378906 256.660156 316.894531 191.890625 257.234375 191.890625 Z M 257.234375 191.890625 " fill-opacity="1" fill-rule="nonzero"/><g clip-path="url(#075ae713aa)"><path fill="#2781f6" d="M 602.972656 226.132812 C 664.171875 226.132812 713.785156 176.523438 713.785156 115.328125 C 713.785156 54.132812 664.171875 4.527344 602.972656 4.527344 C 541.769531 4.527344 492.15625 54.132812 492.15625 115.328125 C 492.15625 176.523438 541.769531 226.132812 602.972656 226.132812 Z M 602.972656 226.132812 " fill-opacity="1" fill-rule="nonzero"/></g><path stroke-linecap="butt" transform="matrix(0.432868, 0, 0, 0.432824, 492.157506, -10.189784)" fill-opacity="1" fill="#ffffff" fill-rule="nonzero" stroke-linejoin="miter" d="M 366.998624 410.003846 L 247.988662 410.003846 C 182.392408 410.003846 128.996749 356.611706 128.996749 290.990636 C 128.996749 225.387616 182.392408 172.004501 247.988662 172.004501 C 313.61199 172.004501 366.998624 225.387616 366.998624 290.990636 Z M 366.998624 410.003846 " stroke="#ffffff" stroke-width="6" stroke-opacity="1" stroke-miterlimit="4"/></g></g><path stroke-linecap="butt" transform="matrix(0.439805, -0.606981, 0.606981, 0.439805, 1460.534535, 345.139141)" fill="none" stroke-linejoin="miter" d="M 0.000323384 7.002654 L 328.577092 6.999277 " stroke="#ffffff" stroke-width="14" stroke-opacity="1" stroke-miterlimit="4"/></svg>